<?xml version="1.0" encoding="UTF-8" standalone="no"?>
<svg
   width="449"
   height="79"
   fill="none"
   version="1.1"
   id="svg15"
   sodipodi:docname="logo.svg"
   inkscape:version="1.2.2 (732a01da63, 2022-12-09)"
   xml:space="preserve"
   inkscape:export-filename="logo.png"
   inkscape:export-xdpi="96"
   inkscape:export-ydpi="96"
   xmlns:inkscape="http://www.inkscape.org/namespaces/inkscape"
   xmlns:sodipodi="http://sodipodi.sourceforge.net/DTD/sodipodi-0.dtd"
   xmlns="http://www.w3.org/2000/svg"
   xmlns:svg="http://www.w3.org/2000/svg"><sodipodi:namedview
     id="namedview17"
     pagecolor="#ffffff"
     bordercolor="#000000"
     borderopacity="0.25"
     inkscape:showpageshadow="2"
     inkscape:pageopacity="0.0"
     inkscape:pagecheckerboard="0"
     inkscape:deskcolor="#d1d1d1"
     showgrid="false"
     inkscape:zoom="1.9543864"
     inkscape:cx="192.38775"
     inkscape:cy="70.610397"
     inkscape:window-width="1920"
     inkscape:window-height="1009"
     inkscape:window-x="-8"
     inkscape:window-y="-2"
     inkscape:window-maximized="1"
     inkscape:current-layer="svg15" /><defs
     id="defs13"><rect
       x="16.281225"
       y="10.492345"
       width="444.3443"
       height="103.23675"
       id="rect354" /><clipPath
       id="clip0"><path
         fill="#fff"
         d="M0 0h448.5v78.9511H0z"
         id="path10" /></clipPath></defs><text
     xml:space="preserve"
     id="text352"
     style="font-size:37.3333px;font-family:HGSGyoshotai;-inkscape-font-specification:'HGSGyoshotai, Normal';white-space:pre;shape-inside:url(#rect354);display:inline;fill:#666666;fill-opacity:0"
     transform="translate(-9.2100514,-5.1166952)"><tspan
       x="16.28125"
       y="70.264149"
       id="tspan1223"><tspan
         style="font-weight:900;font-size:66.6667px;font-family:Arial;-inkscape-font-specification:'Arial, Heavy';fill:#000000;fill-opacity:1"
         id="tspan1221">FSG-Vault</tspan></tspan></text><g
     transform="translate(48.024176,4.3172519)"
     id="text188"
     style="font-size:32px;font-family:'Cascadia Code', 'Cascadia Code_MSFontService', sans-serif;fill:#ffffff" /><g
     id="g1317"
     transform="matrix(0.46791882,0,0,0.46791882,412.88025,51.463478)"><path
       d="m -65.686821,-32.682746 c 0,-37.002999 25.745,-66.999998 57.5039996,-66.999998 31.7589994,0 57.5039994,29.996999 57.5039994,66.999998 0,37.0029988 -25.745,66.999997 -57.5039994,66.999997 -31.7589996,0 -57.5039996,-29.9969982 -57.5039996,-66.999997 z m 28.752,0 c 0,21.123998 12.872999,38.2479978 28.7519996,38.2479978 15.8790007,0 28.7519994,-17.1239998 28.7519994,-38.2479978 0,-21.123999 -12.8729987,-38.247998 -28.7519994,-38.247998 -15.8790006,0 -28.7519996,17.123999 -28.7519996,38.247998 z"
       fill="#002060"
       fill-rule="evenodd"
       id="path182"
       style="stroke-width:0.999999" /><path
       id="rect184"
       style="fill:#002060;stroke-width:0.970416"
       d="M -82.682819,-32.682746 H 67.332724 V 50.562473 H -82.682819 Z" /><g
       aria-label="c~!#A9"
       transform="translate(-69.878131,2.3172506)"
       id="text186"
       style="font-size:32px;font-family:'Cascadia Code', 'Cascadia Code_MSFontService', sans-serif;fill:#ffffff"><path
         d="M 15.796875,-1.09375 Q 14.328125,-0.390625 13,0 q -1.3125,0.390625 -2.796875,0.390625 -1.890625,0 -3.46875,-0.546875 -1.578125,-0.5625 -2.703125,-1.6875 -1.140625,-1.125 -1.765625,-2.84375 -0.625,-1.71875 -0.625,-4.015625 0,-4.28125 2.34375,-6.71875 2.359375,-2.4375 6.21875,-2.4375 1.5,0 2.9375,0.421875 1.453125,0.421875 2.65625,1.03125 v 3.265625 h -0.15625 q -1.34375,-1.046875 -2.78125,-1.609375 -1.421875,-0.5625 -2.78125,-0.5625 -2.5,0 -3.953125,1.6875 -1.4375,1.671875 -1.4375,4.921875 0,3.15625 1.40625,4.859375 1.421875,1.6875 3.984375,1.6875 0.890625,0 1.8125,-0.234375 Q 12.8125,-2.625 13.546875,-3 14.1875,-3.328125 14.75,-3.6875 q 0.5625,-0.375 0.890625,-0.640625 h 0.15625 z"
         id="path318" /><path
         d="m 39.9375,-14.484375 q -0.03125,1.546875 -0.359375,3.046875 -0.3125,1.5 -1.015625,2.671875 Q 37.84375,-7.5625 36.828125,-6.875 35.8125,-6.1875 34.25,-6.1875 q -1.46875,0 -2.609375,-0.609375 -1.140625,-0.625 -2.453125,-2.21875 -1.59375,-1.953125 -2.3125,-2.453125 -0.71875,-0.5 -1.5,-0.5 -1.46875,0 -2.25,1.375 -0.78125,1.359375 -0.921875,4.421875 H 19.59375 q 0.03125,-1.5625 0.34375,-3.03125 0.328125,-1.484375 1.015625,-2.6875 0.671875,-1.15625 1.75,-1.859375 1.078125,-0.71875 2.578125,-0.71875 1.453125,0 2.59375,0.609375 1.15625,0.59375 2.484375,2.21875 1.25,1.53125 2.046875,2.25 0.796875,0.703125 1.75,0.703125 1.609375,0 2.359375,-1.578125 0.765625,-1.578125 0.8125,-4.21875 z"
         id="path320" /><path
         d="M 50.90625,-23.265625 50.5,-6.40625 h -2.65625 l -0.4375,-16.859375 z M 50.75,0 H 47.5625 V -3.296875 H 50.75 Z"
         id="path322" /><path
         d="m 78.59375,-14.5625 h -5.203125 l -1.4375,5.875 h 4.8125 v 2.109375 H 71.40625 L 69.78125,0 h -2.015625 l 1.625,-6.578125 h -4.21875 L 63.546875,0 H 61.53125 l 1.625,-6.578125 H 58.5 V -8.6875 h 5.203125 l 1.4375,-5.875 h -4.8125 v -2.109375 H 65.6875 l 1.640625,-6.59375 h 2.015625 l -1.640625,6.59375 h 4.21875 l 1.640625,-6.59375 h 2.015625 l -1.640625,6.59375 h 4.65625 z m -7.171875,-0.03125 h -4.28125 l -1.46875,5.9375 h 4.28125 z"
         id="path324" /><path
         d="M 103.10938,0 H 99.8125 L 97.53125,-6.484375 H 87.46875 L 85.1875,0 h -3.140625 l 8.46875,-23.265625 h 4.125 z M 96.578125,-9.140625 92.5,-20.5625 88.40625,-9.140625 Z"
         id="path326" /><path
         d="m 121.75,-13.03125 q 0,3.046875 -0.70312,5.53125 -0.6875,2.484375 -2.09375,4.234375 -1.42188,1.78125 -3.5625,2.75 -2.14063,0.96875 -5.03125,0.96875 -0.8125,0 -1.53125,-0.09375 -0.71875,-0.078125 -1.28125,-0.265625 v -2.984375 h 0.15625 q 0.45312,0.234375 1.28125,0.453125 0.82812,0.203125 1.84375,0.203125 3.45312,0 5.40625,-2.0625 1.96875,-2.078125 2.28125,-5.71875 -1.45313,0.875 -2.73438,1.25 -1.28125,0.375 -2.79687,0.375 -1.4375,0 -2.60938,-0.28125 -1.15625,-0.28125 -2.32812,-1.09375 -1.375,-0.953125 -2.07813,-2.421875 -0.6875,-1.46875 -0.6875,-3.515625 0,-3.5625 2.34375,-5.796875 2.34375,-2.234375 5.71875,-2.234375 1.6875,0 3.125,0.53125 1.4375,0.515625 2.51563,1.5625 1.32812,1.296875 2.04687,3.34375 0.71875,2.03125 0.71875,5.265625 z m -3.15625,-0.671875 q 0,-2.421875 -0.5,-3.890625 -0.5,-1.46875 -1.375,-2.28125 -0.73437,-0.703125 -1.57812,-1 -0.84375,-0.3125 -1.82813,-0.3125 -2.25,0 -3.5625,1.40625 -1.29687,1.40625 -1.29687,3.953125 0,1.484375 0.42187,2.421875 0.42188,0.9375 1.42188,1.640625 0.70312,0.484375 1.54687,0.65625 0.84375,0.15625 1.875,0.15625 1.21875,0 2.46875,-0.328125 1.25,-0.328125 2.34375,-0.953125 0.0156,-0.328125 0.0312,-0.640625 0.0312,-0.328125 0.0312,-0.828125 z"
         id="path328" /></g><g
       aria-label="3*f0%="
       transform="translate(-74.026567,40.317251)"
       id="text190"
       style="font-size:32px;font-family:'Cascadia Code', 'Cascadia Code_MSFontService', sans-serif;fill:#ffffff"><path
         d="m 16.21875,-11.203125 q 0.75,0.671875 1.234375,1.6875 0.484375,1.015625 0.484375,2.625 0,1.59375 -0.578125,2.921875 -0.578125,1.328125 -1.625,2.3125 Q 14.5625,-0.5625 12.96875,-0.03125 11.390625,0.484375 9.5,0.484375 q -1.9375,0 -3.8125,-0.46875 -1.875,-0.453125 -3.078125,-1 V -4.25 H 2.84375 q 1.328125,0.875 3.125,1.453125 1.796875,0.578125 3.46875,0.578125 0.984375,0 2.09375,-0.328125 1.109375,-0.328125 1.796875,-0.96875 0.71875,-0.6875 1.0625,-1.515625 Q 14.75,-5.859375 14.75,-7.125 q 0,-1.25 -0.40625,-2.0625 -0.390625,-0.828125 -1.09375,-1.296875 -0.703125,-0.484375 -1.703125,-0.65625 -1,-0.1875 -2.15625,-0.1875 h -1.40625 v -2.59375 h 1.09375 q 2.375,0 3.78125,-0.984375 1.421875,-1 1.421875,-2.90625 0,-0.84375 -0.359375,-1.46875 -0.359375,-0.640625 -1,-1.046875 -0.671875,-0.40625 -1.4375,-0.5625 -0.765625,-0.15625 -1.734375,-0.15625 -1.484375,0 -3.15625,0.53125 -1.671875,0.53125 -3.15625,1.5 H 3.28125 v -3.265625 q 1.109375,-0.546875 2.953125,-1 1.859375,-0.46875 3.59375,-0.46875 1.703125,0 3,0.3125 1.296875,0.3125 2.34375,1 1.125,0.75 1.703125,1.8125 0.578125,1.0625 0.578125,2.484375 0,1.9375 -1.375,3.390625 -1.359375,1.4375 -3.21875,1.8125 v 0.21875 q 0.75,0.125 1.71875,0.53125 0.96875,0.390625 1.640625,0.984375 z"
         id="path332" /><path
         d="m 38.109375,-13.859375 -1,1.71875 -5.65625,-3.328125 0.09375,5.625 H 29.53125 l 0.07813,-5.625 -5.640625,3.34375 -1.015625,-1.71875 5.953125,-3.234375 -5.953125,-3.234375 1.015625,-1.71875 5.65625,3.328125 -0.09375,-5.609375 h 2.015625 l -0.109375,5.609375 5.671875,-3.3125 1,1.71875 -5.9375,3.203125 z"
         id="path334" /><path
         d="M 52.96875,-21.46875 H 52.8125 q -0.484375,-0.140625 -1.265625,-0.28125 -0.78125,-0.15625 -1.375,-0.15625 -1.890625,0 -2.75,0.84375 -0.84375,0.828125 -0.84375,3.015625 v 0.59375 H 51.875 v 2.46875 H 46.671875 V 0 h -2.9375 V -14.984375 H 41.75 v -2.46875 h 1.984375 v -0.578125 q 0,-3.109375 1.546875,-4.765625 1.546875,-1.671875 4.46875,-1.671875 0.984375,0 1.765625,0.09375 0.796875,0.09375 1.453125,0.21875 z"
         id="path336" /><path
         d="m 70.171875,-11.640625 q 0,6.265625 -1.96875,9.203125 Q 66.25,0.484375 62.125,0.484375 q -4.1875,0 -6.125,-2.96875 -1.921875,-2.96875 -1.921875,-9.125 0,-6.203125 1.953125,-9.15625 1.953125,-2.96875 6.09375,-2.96875 4.1875,0 6.109375,3.015625 1.9375,3 1.9375,9.078125 z M 66.0625,-4.546875 Q 66.609375,-5.8125 66.796875,-7.515625 67,-9.234375 67,-11.640625 q 0,-2.375 -0.203125,-4.125 -0.1875,-1.75 -0.75,-2.96875 -0.546875,-1.203125 -1.5,-1.8125 -0.9375,-0.609375 -2.421875,-0.609375 -1.46875,0 -2.4375,0.609375 -0.953125,0.609375 -1.515625,1.84375 -0.53125,1.15625 -0.734375,3.015625 -0.1875,1.859375 -0.1875,4.078125 0,2.4375 0.171875,4.078125 0.171875,1.640625 0.734375,2.9375 0.515625,1.21875 1.453125,1.859375 0.953125,0.640625 2.515625,0.640625 1.46875,0 2.4375,-0.609375 0.96875,-0.609375 1.5,-1.84375 z"
         id="path338" /><path
         d="m 86.09375,-16.8125 q 0,3.5 -1.484375,5.203125 -1.46875,1.703125 -4.25,1.703125 -2.84375,0 -4.296875,-1.703125 -1.453125,-1.703125 -1.453125,-5.1875 0,-3.5 1.484375,-5.203125 1.484375,-1.703125 4.265625,-1.703125 2.828125,0 4.28125,1.71875 1.453125,1.71875 1.453125,5.171875 z M 96.890625,-23.265625 84.703125,0 H 82.125 l 12.1875,-23.265625 z m 7.500005,16.8125 q 0,3.5 -1.48438,5.203125 -1.48437,1.703125 -4.265625,1.703125 -2.828125,0 -4.28125,-1.71875 -1.453125,-1.71875 -1.453125,-5.171875 0,-3.5 1.46875,-5.203125 1.484375,-1.703125 4.265625,-1.703125 2.843755,0 4.296875,1.703125 1.45313,1.703125 1.45313,5.1875 z M 83.3125,-16.8125 q 0,-2.6875 -0.703125,-3.75 -0.6875,-1.0625 -2.25,-1.0625 -1.59375,0 -2.28125,1.0625 -0.6875,1.0625 -0.6875,3.765625 0,2.703125 0.6875,3.765625 0.6875,1.046875 2.28125,1.046875 1.5625,0 2.25,-1.046875 0.703125,-1.0625 0.703125,-3.78125 z m 18.29688,10.359375 q 0,-2.6875 -0.70313,-3.75 -0.6875,-1.0625 -2.25,-1.0625 -1.59375,0 -2.28125,1.0625 -0.6875,1.0625 -0.6875,3.765625 0,2.703125 0.6875,3.765625 0.6875,1.046875 2.28125,1.046875 1.5625,0 2.25,-1.046875 0.70313,-1.0625 0.70313,-3.78125 z"
         id="path340" /><path
         d="m 129.07812,-12.21875 h -18.53124 v -2.5 h 18.53124 z m 0,6.5625 h -18.53124 v -2.5 h 18.53124 z"
         id="path342" /></g></g><g
     transform="translate(48.024176,42.317253)"
     id="text192"
     style="font-size:32px;font-family:'Cascadia Code', 'Cascadia Code_MSFontService', sans-serif;fill:#ffffff" /></svg>
