<svg width="449" height="79" fill="none" xmlns="http://www.w3.org/2000/svg"><g clip-path="url(#clip0)"><path d="M 213.89265 0 L 213.89265 63.63584 L 228.61571 63.63584 L 228.61571 0 L 213.89265 0 z M 242.11184 0 L 242.11184 11.165125 L 257.65349 11.165125 L 257.65349 0 L 242.11184 0 z M 272.00847 4.5806662 L 272.00847 17.707797 L 265.95629 17.707797 L 265.95629 27.686963 L 272.00847 27.686963 L 272.00847 49.159582 C 272.00847 54.776148 273.39898 58.741452 276.18 61.058967 C 278.98828 63.376481 283.25461 64.535259 288.98024 64.535259 C 291.54314 64.535259 293.7107 64.412518 295.48292 64.167134 C 297.25513 63.949015 298.93194 63.636891 300.5133 63.227918 L 300.5133 53.12538 L 299.28638 53.12538 C 298.79561 53.398029 297.92377 53.69762 296.66959 54.024799 C 295.44267 54.351978 294.44814 54.516295 293.68472 54.516295 C 291.8307 54.516295 290.41228 54.243759 289.43075 53.698461 C 288.47648 53.125899 287.80912 52.362399 287.42742 51.408128 C 287.01844 50.453857 286.79905 49.376244 286.77178 48.176589 C 286.74451 46.976935 286.73152 45.572676 286.73152 43.964048 L 286.73152 27.686963 L 300.5133 27.686963 L 300.5133 17.707797 L 286.73152 17.707797 L 286.73152 4.5806662 L 272.00847 4.5806662 z M 332.04518 16.277085 C 323.94751 16.277085 317.5675 18.498953 312.90521 22.943128 C 308.27018 27.360039 305.95393 33.357829 305.95393 40.937465 C 305.95393 48.598897 308.40778 54.50299 313.31546 58.647252 C 318.22314 62.791514 325.28349 64.863586 334.49902 64.863586 C 338.07072 64.863586 341.32952 64.563995 344.27413 63.964168 C 347.21874 63.36434 350.35485 62.394945 353.68117 61.058967 L 353.68117 49.241166 L 352.044 49.241166 C 350.35357 50.522616 348.05032 51.72098 345.13298 52.83884 C 342.21564 53.9567 339.20222 54.516295 336.09402 54.516295 C 331.18634 54.516295 327.46467 53.561423 324.92904 51.652881 C 322.42066 49.74434 321.05806 46.991922 320.83994 43.392957 L 354.54002 43.392957 L 354.54002 38.23921 C 354.54002 31.150341 352.65873 25.724678 348.89618 21.962125 C 345.13362 18.172306 339.51575 16.277085 332.04518 16.277085 z M 77.255788 16.400456 C 73.738618 16.400456 70.221433 16.685525 66.704264 17.258088 C 63.214359 17.803385 60.691708 18.281816 59.13761 18.690789 L 59.13761 29.77234 L 60.487223 29.77234 C 61.686878 29.308837 63.662952 28.655546 66.416704 27.810335 C 69.170457 26.937859 71.76191 26.501004 74.188484 26.501004 C 78.223687 26.501004 81.276088 26.991968 83.348219 27.973504 C 85.42035 28.927774 86.457698 30.673201 86.457698 33.208835 L 86.457698 33.453588 C 82.122581 33.698972 77.936127 34.081717 73.900924 34.59975 C 69.865722 35.117782 66.48614 35.9895 63.759653 37.21642 C 61.005899 38.44334 58.87923 40.120135 57.379661 42.246796 C 55.880093 44.373456 55.129028 47.113342 55.129028 50.466922 C 55.129028 54.665714 56.601337 58.114991 59.545944 60.814214 C 62.490552 63.513437 66.145339 64.863586 70.50772 64.863586 C 72.361732 64.863586 74.064516 64.699268 75.618614 64.37209 C 77.172712 64.072176 78.672926 63.595735 80.117965 62.941378 C 81.154031 62.45061 82.258263 61.782797 83.430653 60.937585 C 84.603042 60.092374 85.584582 59.368461 86.375264 58.768634 L 86.375264 63.63584 L 100.97563 63.63584 L 100.97563 32.391001 C 100.97563 26.883495 99.10734 22.847569 95.372048 20.28467 C 91.664025 17.694506 85.626106 16.400456 77.255788 16.400456 z M 29.814189 16.440254 C 26.733258 16.440254 24.006119 16.999849 21.634074 18.117709 C 19.289295 19.235569 16.986042 20.693937 14.723056 22.493419 L 14.723056 17.707797 L 0 17.707797 L 0 80.486006 L 14.723056 80.486006 L 14.723056 61.345507 C 16.631598 62.354308 18.499889 63.132329 20.326636 63.677627 C 22.153383 64.25019 24.374841 64.535259 26.99227 64.535259 C 29.827818 64.535259 32.486155 63.990186 34.967259 62.899591 C 37.448363 61.808995 39.669821 60.200832 41.632893 58.074171 C 43.514169 56.05657 45.027377 53.493534 46.172502 50.385338 C 47.344891 47.277142 47.932367 43.827866 47.932367 40.038047 C 47.932367 32.703794 46.337364 26.936964 43.147374 22.738172 C 39.984647 18.539381 35.539814 16.440254 29.814189 16.440254 z M 135.08404 16.440254 C 127.83159 16.440254 122.10594 17.913144 117.90714 20.857751 C 113.73562 23.775093 111.64984 27.442796 111.64984 31.859707 C 111.64984 35.295083 112.65929 38.170242 114.67689 40.487756 C 116.69449 42.778007 119.78779 44.469324 123.95932 45.559919 C 125.48615 45.968892 127.17785 46.322592 129.03187 46.622506 C 130.91314 46.895154 132.39845 47.155158 133.48904 47.400543 C 135.7793 47.864045 137.3334 48.355009 138.15135 48.873042 C 138.96929 49.363809 139.37827 50.166896 139.37827 51.284756 C 139.37827 52.538941 138.68301 53.493814 137.2925 54.14817 C 135.902 54.775263 133.76233 55.089376 130.87225 55.089376 C 128.66379 55.089376 126.59102 54.870949 124.65521 54.434711 C 122.7194 53.971208 120.98871 53.426135 119.46188 52.799043 C 117.68966 52.090156 116.31214 51.434875 115.33061 50.835047 C 114.37634 50.207955 113.53048 49.635828 112.79433 49.117795 L 111.44472 49.117795 L 111.44472 61.224126 C 113.46232 62.151131 116.13557 62.995795 119.46188 63.759212 C 122.7882 64.522629 126.49496 64.903383 130.58469 64.903383 C 137.97348 64.903383 143.79583 63.459538 148.04915 60.56946 C 152.30247 57.652118 154.42914 53.820097 154.42914 49.076008 C 154.42914 45.831487 153.50149 43.133178 151.64748 40.979253 C 149.79347 38.798062 146.93065 37.202431 143.05903 36.19363 C 141.31408 35.757393 139.56848 35.403692 137.82353 35.131043 C 136.10584 34.831129 134.49784 34.531538 132.99828 34.231625 C 130.27179 33.659062 128.5411 33.086935 127.80495 32.514372 C 127.0688 31.94181 126.70072 31.109678 126.70072 30.019083 C 126.70072 28.819429 127.50376 27.891611 129.11239 27.237254 C 130.74828 26.582897 132.75226 26.256251 135.1243 26.256251 C 137.98711 26.256251 140.80903 26.732693 143.59006 27.686963 C 146.39834 28.613969 148.89309 29.826855 151.07428 31.326424 L 152.34338 31.326424 L 152.34338 19.71159 C 150.57116 18.920908 148.10239 18.186453 144.93967 17.504831 C 141.80421 16.795944 138.51942 16.440254 135.08404 16.440254 z M 184.77436 16.440254 C 177.5219 16.440254 171.79625 17.913144 167.59746 20.857751 C 163.42594 23.775093 161.34016 27.442796 161.34016 31.859707 C 161.34016 35.295083 162.34961 38.170242 164.3672 40.487756 C 166.38481 42.778007 169.47811 44.469324 173.64963 45.559919 C 175.17646 45.968892 176.86817 46.322592 178.72218 46.622506 C 180.60346 46.895154 182.08876 47.155158 183.17936 47.400543 C 185.46961 47.864045 187.02371 48.355009 187.84166 48.873042 C 188.65961 49.363809 189.06858 50.166896 189.06858 51.284756 C 189.06858 52.538941 188.37333 53.493814 186.98282 54.14817 C 185.59231 54.775263 183.45264 55.089376 180.56257 55.089376 C 178.35411 55.089376 176.28133 54.870949 174.34553 54.434711 C 172.40971 53.971208 170.67903 53.426135 169.1522 52.799043 C 167.37998 52.090156 166.00246 51.434875 165.02092 50.835047 C 164.06665 50.207955 163.2208 49.635828 162.48465 49.117795 L 161.13503 49.117795 L 161.13503 61.224126 C 163.15263 62.151131 165.82588 62.995795 169.1522 63.759212 C 172.47851 64.522629 176.18528 64.903383 180.27501 64.903383 C 187.66379 64.903383 193.48614 63.459538 197.73947 60.56946 C 201.99279 57.652118 204.11946 53.820097 204.11946 49.076008 C 204.11946 45.831487 203.19181 43.133178 201.3378 40.979253 C 199.48378 38.798062 196.62096 37.202431 192.74935 36.19363 C 191.00439 35.757393 189.25879 35.403692 187.51384 35.131043 C 185.79615 34.831129 184.18816 34.531538 182.68859 34.231625 C 179.9621 33.659062 178.23142 33.086935 177.49526 32.514372 C 176.75912 31.94181 176.39103 31.109678 176.39103 30.019083 C 176.39103 28.819429 177.19408 27.891611 178.8027 27.237254 C 180.43859 26.582897 182.44257 26.256251 184.81462 26.256251 C 187.67743 26.256251 190.49935 26.732693 193.28037 27.686963 C 196.08865 28.613969 198.5834 29.826855 200.76459 31.326424 L 202.03369 31.326424 L 202.03369 19.71159 C 200.26147 18.920908 197.79271 18.186453 194.62999 17.504831 C 191.49452 16.795944 188.20973 16.440254 184.77436 16.440254 z M 242.5221 17.707797 L 242.5221 63.63584 L 257.24515 63.63584 L 257.24515 17.707797 L 242.5221 17.707797 z M 330.86043 25.478214 C 333.9141 25.478214 336.16346 26.256237 337.6085 27.810335 C 339.05354 29.364433 339.81568 31.681987 339.89748 34.762918 L 320.79968 34.762918 C 321.0178 31.518398 322.04024 29.159267 323.86698 27.686963 C 325.69373 26.21466 328.02489 25.478214 330.86043 25.478214 z M 23.229072 27.565581 C 26.528123 27.565581 28.941075 28.574563 30.467908 30.592164 C 31.994741 32.609765 32.7588 35.853147 32.7588 40.324587 C 32.7588 44.905087 31.805164 48.339842 29.896623 50.630091 C 27.988081 52.893076 25.084359 54.024799 21.185481 54.024799 C 20.094886 54.024799 18.990654 53.970689 17.872794 53.86163 C 16.754933 53.75257 15.704592 53.507089 14.723056 53.12538 L 14.723056 30.019083 C 16.059036 29.228402 17.462543 28.62723 18.934847 28.218257 C 20.407151 27.782019 21.838563 27.565581 23.229072 27.565581 z M 86.375264 42.083627 L 86.375264 51.652881 C 85.230139 52.634417 83.893516 53.424971 82.366682 54.024799 C 80.867113 54.624626 79.38181 54.924217 77.909507 54.924217 C 76.055494 54.924217 74.692884 54.801476 73.820408 54.556092 C 72.947931 54.283443 72.196866 53.875634 71.569774 53.330336 C 70.915417 52.785039 70.506442 52.212911 70.342853 51.613084 C 70.179263 51.013257 70.097468 50.235235 70.097468 49.280964 C 70.097468 47.835925 70.480456 46.677148 71.243873 45.804672 C 72.034554 44.904931 73.164773 44.224585 74.637077 43.761082 C 75.836732 43.379374 77.595324 43.050738 79.912839 42.778089 C 82.230353 42.478176 84.384927 42.247216 86.375264 42.083627 z " fill="#000"/><path d="M446.532 30.884L419.433 5.52579c-2.347-2.19519-6.056-2.19519-8.478 0L393.923 21.4977c4.466 1.6653 7.948 5.3744 9.235 9.9919h23.012c1.211 0 2.119.984 2.119 2.1195v3.482c0 1.2111-.984 2.1195-2.119 2.1195h-2.649v4.9202c0 1.2112-.985 2.1195-2.12 2.1195h-5.829c-1.211 0-2.119-.984-2.119-2.1195v-4.9202h-10.219c-1.287 4.6932-4.769 8.478-9.311 10.0676l17.108 15.9719c2.346 2.1952 6.055 2.1952 8.478 0l27.023-25.3582c2.574-2.4223 2.574-6.5099 0-9.0079z" fill="#EF8600"/><path d="M388.927 28.3862c-1.135 0-2.195.3028-3.179.757-2.271 1.1354-3.86 3.482-3.86 6.2071 0 2.6493 1.438 4.9202 3.633 6.1314.984.5298 2.12.8326 3.331.8326 3.86 0 6.964-3.1035 6.964-6.964.151-3.7848-3.028-6.9641-6.889-6.9641z" fill="#EF8600"/></g><defs><clipPath id="clip0"><path fill="#fff" d="M0 0h448.5v78.9511H0z"/></clipPath></defs></svg>